<svg aria-hidden="true" style="position: absolute; width: 0; height: 0; overflow: hidden;" version="1.1" xmlns="http://www.w3.org/2000/svg" xmlns:xlink="http://www.w3.org/1999/xlink">
  <defs>
    <symbol id="icon-menu-burger" viewBox="0 0 40 32">
      <path d="M2.667 0h34.667c1.473 0 2.667 1.194 2.667 2.667s-1.194 2.667-2.667 2.667h-34.667c-1.473 0-2.667-1.194-2.667-2.667s1.194-2.667 2.667-2.667z"></path>
      <path d="M2.667 13.333h34.667c1.473 0 2.667 1.194 2.667 2.667s-1.194 2.667-2.667 2.667h-34.667c-1.473 0-2.667-1.194-2.667-2.667s1.194-2.667 2.667-2.667z"></path>
      <path d="M2.667 26.667h34.667c1.473 0 2.667 1.194 2.667 2.667s-1.194 2.667-2.667 2.667h-34.667c-1.473 0-2.667-1.194-2.667-2.667s1.194-2.667 2.667-2.667z"></path>
    </symbol>
  </defs>
</svg>
