<svg aria-hidden="true" style="position: absolute; width: 0; height: 0; overflow: hidden;" version="1.1" xmlns="http://www.w3.org/2000/svg" xmlns:xlink="http://www.w3.org/1999/xlink">
  <defs>
    <symbol id="icon-menu-burger" viewBox="0 0 40 32">
      <path d="M2.667 0h34.667c1.473 0 2.667 1.194 2.667 2.667s-1.194 2.667-2.667 2.667h-34.667c-1.473 0-2.667-1.194-2.667-2.667s1.194-2.667 2.667-2.667z"></path>
      <path d="M2.667 13.333h34.667c1.473 0 2.667 1.194 2.667 2.667s-1.194 2.667-2.667 2.667h-34.667c-1.473 0-2.667-1.194-2.667-2.667s1.194-2.667 2.667-2.667z"></path>
      <path d="M2.667 26.667h34.667c1.473 0 2.667 1.194 2.667 2.667s-1.194 2.667-2.667 2.667h-34.667c-1.473 0-2.667-1.194-2.667-2.667s1.194-2.667 2.667-2.667z"></path>
    </symbol>
    <symbol id="icon-taskLists" viewBox="0 0 37 32">
      <path fill="#f6f9f9" style="fill: var(--color1, #f6f9f9)" d="M34.352 5.576l-19.753-1.118-14.599 1.118v22.032c0 0.384 0.311 0.695 0.695 0.695h32.962c0.384 0 0.695-0.311 0.695-0.695v-22.032h0z"></path>
      <path fill="#e7ecf1" style="fill: var(--color2, #e7ecf1)" d="M0.695 28.303h32.962c0.384 0 0.695-0.311 0.695-0.695v-22.032l-2.943-0.15v11.523c0 1.348-1.192 2.385-2.527 2.196-0.281-0.040-0.569-0.058-0.862-0.054-2.977 0.042-5.409 2.477-5.448 5.454-0 0.021-0 0.042-0.001 0.063-0.003 1.228-0.989 2.226-2.217 2.226h-20.354v0.776c0 0.384 0.311 0.695 0.695 0.695z"></path>
      <path fill="#da4a54" style="fill: var(--color3, #da4a54)" d="M31.069 19.242v1.975c0 0.076-0.062 0.138-0.138 0.138h-2.804c-0.076 0-0.138-0.062-0.138-0.138v-1.975c0-0.076 0.062-0.138 0.138-0.138h2.804c0.076-0 0.138 0.062 0.138 0.138zM31.069 15.954c0-0.076-0.062-0.138-0.138-0.138h-2.804c-0.076 0-0.138 0.062-0.138 0.138v1.975c0 0.076 0.062 0.138 0.138 0.138h2.804c0.076 0 0.138-0.062 0.138-0.138v-1.975zM31.069 12.666c0-0.076-0.062-0.138-0.138-0.138h-2.804c-0.076 0-0.138 0.062-0.138 0.138v1.975c0 0.076 0.062 0.138 0.138 0.138h2.804c0.076 0 0.138-0.062 0.138-0.138v-1.975zM31.069 9.378c0-0.076-0.062-0.138-0.138-0.138h-2.804c-0.076 0-0.138 0.062-0.138 0.138v1.975c0 0.076 0.062 0.138 0.138 0.138h2.804c0.076 0 0.138-0.062 0.138-0.138v-1.975z"></path>
      <path fill="#d82e3d" style="fill: var(--color4, #d82e3d)" d="M28.126 21.355h2.804c0.076 0 0.138-0.062 0.138-0.138v-1.975c0-0.076-0.062-0.138-0.138-0.138h-1.213c-0.265 0.065-0.547 0.081-0.836 0.040-0.124-0.018-0.25-0.031-0.377-0.040h-0.378c-0.076 0-0.138 0.062-0.138 0.138v1.975c0 0.076 0.062 0.138 0.138 0.138z"></path>
      <path fill="#dae4ea" style="fill: var(--color5, #dae4ea)" d="M22.834 14.641c0 0.076-0.062 0.138-0.138 0.138h-2.804c-0.076 0-0.138-0.062-0.138-0.138v-1.975c0-0.076 0.062-0.138 0.138-0.138h2.804c0.076 0 0.138 0.062 0.138 0.138v1.975zM22.834 9.378c0-0.076-0.062-0.138-0.138-0.138h-2.804c-0.076 0-0.138 0.062-0.138 0.138v1.975c0 0.076 0.062 0.138 0.138 0.138h2.804c0.076 0 0.138-0.062 0.138-0.138v-1.975zM22.696 19.104h-2.804c-0.076 0-0.138 0.062-0.138 0.138v1.975c0 0.076 0.062 0.138 0.138 0.138h2.804c0.076 0 0.138-0.062 0.138-0.138v-1.975c-0-0.076-0.062-0.138-0.138-0.138zM7.525 11.491h2.818c0.076 0 0.138-0.062 0.138-0.138v-1.975c0-0.076-0.062-0.138-0.138-0.138h-2.818c-0.076 0-0.138 0.062-0.138 0.138v1.975c0 0.076 0.062 0.138 0.138 0.138zM7.387 14.641c0 0.076 0.062 0.138 0.138 0.138h2.818c0.076 0 0.138-0.062 0.138-0.138v-1.975c0-0.076-0.062-0.138-0.138-0.138h-2.818c-0.076 0-0.138 0.062-0.138 0.138v1.975zM22.834 15.954c0-0.076-0.062-0.138-0.138-0.138h-2.804c-0.076 0-0.138 0.062-0.138 0.138v1.975c0 0.076 0.062 0.138 0.138 0.138h2.804c0.076 0 0.138-0.062 0.138-0.138v-1.975zM7.387 17.929c0 0.076 0.062 0.138 0.138 0.138h2.818c0.076 0 0.138-0.062 0.138-0.138v-1.975c0-0.076-0.062-0.138-0.138-0.138h-2.818c-0.076 0-0.138 0.062-0.138 0.138v1.975zM26.813 19.104h-2.804c-0.076 0-0.138 0.062-0.138 0.138v1.975c0 0.076 0.062 0.138 0.138 0.138h2.804c0.076 0 0.138-0.062 0.138-0.138v-1.975c0-0.076-0.062-0.138-0.138-0.138zM26.951 15.954c0-0.076-0.062-0.138-0.138-0.138h-2.804c-0.076 0-0.138 0.062-0.138 0.138v1.975c0 0.076 0.062 0.138 0.138 0.138h2.804c0.076 0 0.138-0.062 0.138-0.138v-1.975zM26.951 12.666c0-0.076-0.062-0.138-0.138-0.138h-2.804c-0.076 0-0.138 0.062-0.138 0.138v1.975c0 0.076 0.062 0.138 0.138 0.138h2.804c0.076 0 0.138-0.062 0.138-0.138v-1.975zM26.951 9.378c0-0.076-0.062-0.138-0.138-0.138h-2.804c-0.076 0-0.138 0.062-0.138 0.138v1.975c0 0.076 0.062 0.138 0.138 0.138h2.804c0.076 0 0.138-0.062 0.138-0.138v-1.975zM7.387 24.502c0 0.076 0.062 0.138 0.138 0.138h2.818c0.076 0 0.138-0.062 0.138-0.138v-1.972c0-0.076-0.062-0.138-0.138-0.138h-2.818c-0.076 0-0.138 0.062-0.138 0.138v1.972zM15.636 21.217c0 0.076 0.062 0.138 0.138 0.138h2.804c0.076 0 0.138-0.062 0.138-0.138v-1.975c0-0.076-0.062-0.138-0.138-0.138h-2.804c-0.076 0-0.138 0.062-0.138 0.138v1.975zM15.774 14.779h2.804c0.076 0 0.138-0.062 0.138-0.138v-1.975c0-0.076-0.062-0.138-0.138-0.138h-2.804c-0.076 0-0.138 0.062-0.138 0.138v1.975c-0 0.076 0.062 0.138 0.138 0.138zM15.636 17.929c0 0.076 0.062 0.138 0.138 0.138h2.804c0.076 0 0.138-0.062 0.138-0.138v-1.975c0-0.076-0.062-0.138-0.138-0.138h-2.804c-0.076 0-0.138 0.062-0.138 0.138v1.975zM15.636 24.502c0 0.076 0.062 0.138 0.138 0.138h2.804c0.076 0 0.138-0.062 0.138-0.138v-1.972c0-0.076-0.062-0.138-0.138-0.138h-2.804c-0.076 0-0.138 0.062-0.138 0.138v1.972zM18.578 9.239h-2.804c-0.076 0-0.138 0.062-0.138 0.138v1.975c0 0.076 0.062 0.138 0.138 0.138h2.804c0.076 0 0.138-0.062 0.138-0.138v-1.975c0-0.076-0.062-0.138-0.138-0.138zM7.387 21.217c0 0.076 0.062 0.138 0.138 0.138h2.818c0.076 0 0.138-0.062 0.138-0.138v-1.975c0-0.076-0.062-0.138-0.138-0.138h-2.818c-0.076 0-0.138 0.062-0.138 0.138v1.975zM11.518 24.502c0 0.076 0.062 0.138 0.138 0.138h2.804c0.076 0 0.138-0.062 0.138-0.138v-1.972c0-0.076-0.062-0.138-0.138-0.138h-2.804c-0.076 0-0.138 0.062-0.138 0.138v1.972zM11.518 14.641c0 0.076 0.062 0.138 0.138 0.138h2.804c0.076 0 0.138-0.062 0.138-0.138v-1.975c0-0.076-0.062-0.138-0.138-0.138h-2.804c-0.076 0-0.138 0.062-0.138 0.138v1.975zM11.656 11.491h2.804c0.076 0 0.138-0.062 0.138-0.138v-1.975c0-0.076-0.062-0.138-0.138-0.138h-2.804c-0.076 0-0.138 0.062-0.138 0.138v1.975c0 0.076 0.062 0.138 0.138 0.138zM11.518 17.929c0 0.076 0.062 0.138 0.138 0.138h2.804c0.076 0 0.138-0.062 0.138-0.138v-1.975c0-0.076-0.062-0.138-0.138-0.138h-2.804c-0.076 0-0.138 0.062-0.138 0.138v1.975zM11.518 21.217c0 0.076 0.062 0.138 0.138 0.138h2.804c0.076 0 0.138-0.062 0.138-0.138v-1.975c0-0.076-0.062-0.138-0.138-0.138h-2.804c-0.076 0-0.138 0.062-0.138 0.138v1.975z"></path>
      <path fill="#c6d0da" style="fill: var(--color6, #c6d0da)" d="M23.871 21.217c0 0.076 0.062 0.138 0.138 0.138h2.804c0.076 0 0.138-0.062 0.138-0.138v-1.975c0-0.011-0.001-0.021-0.004-0.031-1.221 0.262-2.298 0.932-3.077 1.858v0.148h0z"></path>
      <path fill="#61a2f9" style="fill: var(--color7, #61a2f9)" d="M33.657 1.514h-32.962c-0.384 0-0.695 0.311-0.695 0.695v3.367h34.352v-3.367c0-0.384-0.311-0.695-0.695-0.695z"></path>
      <path fill="#da4a54" style="fill: var(--color3, #da4a54)" d="M3.283 14.641v-1.975c0-0.076 0.062-0.138 0.138-0.138h2.791c0.076 0 0.138 0.062 0.138 0.138v1.975c0 0.076-0.062 0.138-0.138 0.138h-2.791c-0.076 0-0.138-0.062-0.138-0.138zM3.283 17.929c0 0.076 0.062 0.138 0.138 0.138h2.791c0.076 0 0.138-0.062 0.138-0.138v-1.975c0-0.076-0.062-0.138-0.138-0.138h-2.791c-0.076 0-0.138 0.062-0.138 0.138v1.975h-0zM3.283 24.502c0 0.076 0.062 0.138 0.138 0.138h2.791c0.076 0 0.138-0.062 0.138-0.138v-1.971c0-0.076-0.062-0.138-0.138-0.138h-2.791c-0.076 0-0.138 0.062-0.138 0.138v1.971h-0zM3.283 21.217c0 0.076 0.062 0.138 0.138 0.138h2.791c0.076 0 0.138-0.062 0.138-0.138v-1.975c0-0.076-0.062-0.138-0.138-0.138h-2.791c-0.076 0-0.138 0.062-0.138 0.138v1.975h-0z"></path>
      <path fill="#fff" style="fill: var(--color8, #fff)" d="M3.831 3.719h-0.875c-0.383 0-0.693-0.31-0.693-0.693v-2.334c0-0.383 0.31-0.693 0.693-0.693h0.875c0.383 0 0.693 0.31 0.693 0.693v2.333c0 0.383-0.31 0.693-0.693 0.693z"></path>
      <path fill="#fff" style="fill: var(--color8, #fff)" d="M8.367 3.719h-0.805c-0.383 0-0.693-0.31-0.693-0.693v-2.334c0-0.383 0.31-0.693 0.693-0.693h0.805c0.383 0 0.693 0.31 0.693 0.693v2.333c0 0.383-0.31 0.693-0.693 0.693z"></path>
      <path fill="#fff" style="fill: var(--color8, #fff)" d="M12.973 3.719h-0.805c-0.383 0-0.693-0.31-0.693-0.693v-2.334c0-0.383 0.31-0.693 0.693-0.693h0.805c0.383 0 0.693 0.31 0.693 0.693v2.333c0 0.383-0.31 0.693-0.693 0.693z"></path>
      <path fill="#fff" style="fill: var(--color8, #fff)" d="M17.58 3.719h-0.805c-0.383 0-0.693-0.31-0.693-0.693v-2.334c0-0.383 0.31-0.693 0.693-0.693h0.805c0.383 0 0.693 0.31 0.693 0.693v2.333c0 0.383-0.31 0.693-0.693 0.693z"></path>
      <path fill="#fff" style="fill: var(--color8, #fff)" d="M22.186 3.719h-0.805c-0.383 0-0.693-0.31-0.693-0.693v-2.334c0-0.383 0.31-0.693 0.693-0.693h0.805c0.383 0 0.693 0.31 0.693 0.693v2.333c0 0.383-0.31 0.693-0.693 0.693z"></path>
      <path fill="#fff" style="fill: var(--color8, #fff)" d="M26.791 3.719h-0.805c-0.383 0-0.693-0.31-0.693-0.693v-2.334c0-0.383 0.31-0.693 0.693-0.693h0.805c0.383 0 0.693 0.31 0.693 0.693v2.333c0 0.383-0.31 0.693-0.693 0.693z"></path>
      <path fill="#5490f9" style="fill: var(--color9, #5490f9)" d="M33.657 1.514h-1.567l-0.415 1.097c0 0.379-0.265 1.108-0.265 1.108v1.857h2.943v-3.367c0-0.384-0.311-0.695-0.695-0.695z"></path>
      <path fill="#fff" style="fill: var(--color8, #fff)" d="M31.397 3.719h-0.805c-0.383 0-0.693-0.31-0.693-0.693v-2.334c0-0.383 0.31-0.693 0.693-0.693h0.805c0.383 0 0.693 0.31 0.693 0.693v2.333c0 0.383-0.31 0.693-0.693 0.693z"></path>
      <path fill="#80e29d" style="fill: var(--color10, #80e29d)" d="M31.043 31.617c3.053 0 5.528-2.475 5.528-5.528s-2.475-5.528-5.528-5.528c-3.053 0-5.528 2.475-5.528 5.528s2.475 5.528 5.528 5.528z"></path>
      <path fill="#78d090" style="fill: var(--color11, #78d090)" d="M31.931 20.632c1.046 1.006 1.697 2.42 1.697 3.985 0 3.053-2.475 5.528-5.528 5.528-0.302 0-0.598-0.024-0.887-0.071 0.994 0.955 2.344 1.543 3.831 1.543 3.053 0 5.528-2.475 5.528-5.528 0-2.751-2.009-5.033-4.641-5.457z"></path>
      <path fill="#f6f9f9" style="fill: var(--color1, #f6f9f9)" d="M34.181 24.901l-1.045-1.045c-0.11-0.11-0.288-0.11-0.398 0l-2.021 2.021c-0.11 0.11-0.288 0.11-0.398 0l-0.971-0.971c-0.11-0.11-0.288-0.11-0.398 0l-1.045 1.045c-0.11 0.11-0.11 0.288 0 0.398l2.413 2.413c0.11 0.11 0.288 0.11 0.398 0l3.463-3.463c0.11-0.11 0.11-0.288 0-0.398z"></path>
      <path fill="#e7ecf1" style="fill: var(--color2, #e7ecf1)" d="M33.622 24.343c0.004 0.091 0.007 0.182 0.007 0.274 0 0.49-0.064 0.965-0.183 1.417l0.735-0.736c0.11-0.11 0.11-0.288 0-0.398l-0.559-0.559z"></path>
    </symbol>
    <symbol id="icon-agenda" viewBox="0 0 32 32">
      <path fill="#f6f9f9" style="fill: var(--color1, #f6f9f9)" d="M30.159 6.402l-12.415-1.010-15.901 1.010v24.815c0 0.433 0.351 0.783 0.783 0.783h26.75c0.433 0 0.783-0.351 0.783-0.783v-24.815z"></path>
      <path fill="#e7ecf1" style="fill: var(--color2, #e7ecf1)" d="M30.159 6.402l-2.575-1.288v19.628c0 3.297-2.673 5.97-5.97 5.97h-19.771v0.505c0 0.433 0.351 0.783 0.783 0.783h26.75c0.433 0 0.783-0.351 0.783-0.783v-24.815z"></path>
      <path fill="#61a2f9" style="fill: var(--color7, #61a2f9)" d="M29.375 1.827h-26.75c-0.433 0-0.783 0.351-0.783 0.783v3.792h28.316v-3.792c0-0.433-0.351-0.783-0.783-0.783z"></path>
      <path fill="#5490f9" style="fill: var(--color9, #5490f9)" d="M29.376 1.827h-1.792v4.575h2.575v-3.792c0-0.433-0.351-0.783-0.783-0.783z"></path>
      <path fill="#dae4ea" style="fill: var(--color5, #dae4ea)" d="M5.845 4.31h-0.44c-0.431 0-0.78-0.349-0.78-0.78v-2.75c0-0.431 0.349-0.78 0.78-0.78h0.44c0.431 0 0.78 0.349 0.78 0.78v2.75c0 0.431-0.349 0.78-0.78 0.78z"></path>
      <path fill="#dae4ea" style="fill: var(--color5, #dae4ea)" d="M11.033 4.31h-0.44c-0.431 0-0.78-0.349-0.78-0.78v-2.75c0-0.431 0.349-0.78 0.78-0.78h0.44c0.431 0 0.78 0.349 0.78 0.78v2.75c0 0.431-0.349 0.78-0.78 0.78z"></path>
      <path fill="#dae4ea" style="fill: var(--color5, #dae4ea)" d="M16.22 4.31h-0.44c-0.431 0-0.78-0.349-0.78-0.78v-2.75c0-0.431 0.349-0.78 0.78-0.78h0.44c0.431 0 0.78 0.349 0.78 0.78v2.75c0 0.431-0.349 0.78-0.78 0.78z"></path>
      <path fill="#dae4ea" style="fill: var(--color5, #dae4ea)" d="M21.408 4.31h-0.44c-0.431 0-0.78-0.349-0.78-0.78v-2.75c0-0.431 0.349-0.78 0.78-0.78h0.44c0.431 0 0.78 0.349 0.78 0.78v2.75c0 0.431-0.349 0.78-0.78 0.78z"></path>
      <path fill="#dae4ea" style="fill: var(--color5, #dae4ea)" d="M26.597 4.31h-0.44c-0.431 0-0.78-0.349-0.78-0.78v-2.75c0-0.431 0.349-0.78 0.78-0.78h0.44c0.431 0 0.78 0.349 0.78 0.78v2.75c0 0.431-0.349 0.78-0.78 0.78z"></path>
      <path fill="#dae4ea" style="fill: var(--color5, #dae4ea)" d="M10.52 12.616v-1.133c0-0.14 0.113-0.253 0.253-0.253h14.305c0.14 0 0.253 0.113 0.253 0.253v1.133c0 0.14-0.113 0.253-0.253 0.253h-14.305c-0.14 0-0.253-0.113-0.253-0.253z"></path>
      <path fill="#dae4ea" style="fill: var(--color5, #dae4ea)" d="M10.52 15.893v-1.133c0-0.14 0.113-0.253 0.253-0.253h14.305c0.14 0 0.253 0.113 0.253 0.253v1.133c0 0.14-0.113 0.253-0.253 0.253h-14.305c-0.14 0-0.253-0.113-0.253-0.253z"></path>
      <path fill="#dae4ea" style="fill: var(--color5, #dae4ea)" d="M10.52 19.17v-1.133c0-0.14 0.113-0.253 0.253-0.253h14.305c0.14 0 0.253 0.113 0.253 0.253v1.133c0 0.14-0.113 0.253-0.253 0.253h-14.305c-0.14 0-0.253-0.113-0.253-0.253z"></path>
      <path fill="#dae4ea" style="fill: var(--color5, #dae4ea)" d="M10.52 22.447v-1.133c0-0.14 0.113-0.253 0.253-0.253h14.305c0.14 0 0.253 0.113 0.253 0.253v1.133c0 0.14-0.113 0.253-0.253 0.253h-14.305c-0.14 0-0.253-0.113-0.253-0.253z"></path>
      <path fill="#dae4ea" style="fill: var(--color5, #dae4ea)" d="M10.52 25.724v-1.133c0-0.14 0.113-0.253 0.253-0.253h14.305c0.14 0 0.253 0.113 0.253 0.253v1.133c0 0.14-0.113 0.253-0.253 0.253h-14.305c-0.14 0-0.253-0.113-0.253-0.253z"></path>
      <path fill="#dae4ea" style="fill: var(--color5, #dae4ea)" d="M6.672 12.616v-1.133c0-0.14 0.113-0.253 0.253-0.253h1.41c0.14 0 0.253 0.113 0.253 0.253v1.133c0 0.14-0.113 0.253-0.253 0.253h-1.41c-0.14 0-0.253-0.113-0.253-0.253z"></path>
      <path fill="#dae4ea" style="fill: var(--color5, #dae4ea)" d="M6.672 15.893v-1.133c0-0.14 0.113-0.253 0.253-0.253h1.41c0.14 0 0.253 0.113 0.253 0.253v1.133c0 0.14-0.113 0.253-0.253 0.253h-1.41c-0.14 0-0.253-0.113-0.253-0.253z"></path>
      <path fill="#dae4ea" style="fill: var(--color5, #dae4ea)" d="M6.672 19.17v-1.133c0-0.14 0.113-0.253 0.253-0.253h1.41c0.14 0 0.253 0.113 0.253 0.253v1.133c0 0.14-0.113 0.253-0.253 0.253h-1.41c-0.14 0-0.253-0.113-0.253-0.253z"></path>
      <path fill="#dae4ea" style="fill: var(--color5, #dae4ea)" d="M6.672 22.447v-1.133c0-0.14 0.113-0.253 0.253-0.253h1.41c0.14 0 0.253 0.113 0.253 0.253v1.133c0 0.14-0.113 0.253-0.253 0.253h-1.41c-0.14 0-0.253-0.113-0.253-0.253z"></path>
      <path fill="#dae4ea" style="fill: var(--color5, #dae4ea)" d="M6.672 25.724v-1.133c0-0.14 0.113-0.253 0.253-0.253h1.41c0.14 0 0.253 0.113 0.253 0.253v1.133c0 0.14-0.113 0.253-0.253 0.253h-1.41c-0.14 0-0.253-0.113-0.253-0.253z"></path>
    </symbol>
    <symbol id="icon-bell" viewBox="0 0 32 32">
      <path fill="#ffdd27" style="fill: var(--color12, #ffdd27)" d="M17.634 25.214h-3.269l-0.181 1.049c-0.194 1.126 0.673 2.155 1.815 2.155s2.009-1.029 1.815-2.155l-0.181-1.049z"></path>
      <path fill="#f9c91a" style="fill: var(--color13, #f9c91a)" d="M17.841 26.501c-0.003-0.079-0.012-0.159-0.026-0.239l-0.181-1.049-2.564-0.591-0.705 0.591-0.181 1.049c-0.014 0.080-0.022 0.16-0.026 0.239h3.682z"></path>
      <path fill="#ffdd27" style="fill: var(--color12, #ffdd27)" d="M24 20.097c-0.21-0.364-0.321-0.776-0.321-1.196v-4.194c0-3.403-2.214-6.29-5.28-7.297-0.093-0.031-0.133-0.128-0.091-0.217 0.18-0.388 0.265-0.83 0.225-1.294-0.089-1.017-0.958-2.315-2.529-2.315-1.412 0-2.546 1.146-2.546 2.543 0 0.374 0.081 0.729 0.227 1.049 0.045 0.098-0.004 0.208-0.107 0.242-3.054 1.014-5.257 3.895-5.257 7.29v4.194c0 0.42-0.111 0.833-0.321 1.196l8.171 1.637 7.83-1.637zM15.099 6.125c0-0.498 0.404-0.901 0.901-0.901s0.901 0.404 0.901 0.901-0.404 0.901-0.901 0.901c-0.498 0-0.901-0.404-0.901-0.901z"></path>
      <path fill="#f9c91a" style="fill: var(--color13, #f9c91a)" d="M21.104 13.096v4.194c0 0.42 0.111 0.833 0.321 1.196l0.929 1.61 1.24 0.498 0.406-0.498c-0.21-0.364-0.321-0.776-0.321-1.196v-4.194c0-3.292-2.071-6.1-4.981-7.192 1.481 1.4 2.406 3.383 2.406 5.583z"></path>
      <path fill="#ffdd27" style="fill: var(--color12, #ffdd27)" d="M32 15.382c0 2.545-0.919 4.874-2.444 6.675-0.302 0.357-0.847 0.374-1.177 0.044l-0.004-0.004c-0.298-0.298-0.312-0.771-0.040-1.093 1.282-1.519 2.056-3.481 2.056-5.621s-0.774-4.102-2.056-5.621c-0.271-0.321-0.257-0.795 0.040-1.093l0.005-0.005c0.33-0.331 0.875-0.313 1.177 0.043 1.524 1.801 2.443 4.131 2.443 6.675z"></path>
      <path fill="#ffdd27" style="fill: var(--color12, #ffdd27)" d="M28.781 15.382c0 1.636-0.555 3.145-1.486 4.349-0.297 0.384-0.863 0.422-1.206 0.079l-0.001-0.001c-0.287-0.287-0.313-0.741-0.065-1.062 0.72-0.931 1.149-2.098 1.149-3.364s-0.429-2.433-1.149-3.364c-0.248-0.321-0.222-0.775 0.065-1.062l0.001-0.001c0.343-0.343 0.909-0.305 1.206 0.079 0.932 1.204 1.486 2.713 1.486 4.349z"></path>
      <path fill="#ffdd27" style="fill: var(--color12, #ffdd27)" d="M0 15.382c0 2.545 0.919 4.874 2.444 6.675 0.302 0.357 0.847 0.374 1.177 0.044l0.004-0.004c0.298-0.298 0.312-0.771 0.040-1.093-1.282-1.519-2.056-3.481-2.056-5.621s0.774-4.102 2.056-5.621c0.271-0.321 0.257-0.795-0.040-1.093l-0.005-0.005c-0.33-0.331-0.875-0.313-1.177 0.043-1.524 1.801-2.443 4.131-2.443 6.675v0z"></path>
      <path fill="#ffdd27" style="fill: var(--color12, #ffdd27)" d="M3.219 15.382c0 1.636 0.555 3.145 1.486 4.349 0.297 0.384 0.863 0.422 1.206 0.079l0.001-0.001c0.287-0.287 0.313-0.741 0.065-1.062-0.72-0.931-1.149-2.098-1.149-3.364s0.429-2.433 1.149-3.364c0.248-0.321 0.222-0.775-0.065-1.062l-0.001-0.001c-0.343-0.343-0.909-0.305-1.206 0.079-0.932 1.204-1.486 2.713-1.486 4.349z"></path>
      <path fill="#f9c91a" style="fill: var(--color13, #f9c91a)" d="M16 9.151c-0.467 0-0.915-0.104-1.331-0.308-0.239-0.117-0.338-0.407-0.221-0.646s0.407-0.338 0.646-0.221c0.283 0.139 0.588 0.209 0.906 0.209 0.315 0 0.618-0.069 0.899-0.206 0.24-0.117 0.529-0.017 0.645 0.223s0.017 0.529-0.223 0.645c-0.414 0.201-0.858 0.303-1.32 0.303z"></path>
      <path fill="#f6e266" style="fill: var(--color14, #f6e266)" d="M24 20.097h-16l-2.718 4.707c-0.105 0.182 0.026 0.41 0.237 0.41h20.962c0.21 0 0.342-0.228 0.237-0.41l-2.718-4.707z"></path>
      <path fill="#f4d820" style="fill: var(--color15, #f4d820)" d="M26.717 24.804l-2.718-4.707h-1.646l0.375 0.65c0.733 1.27-0.183 2.857-1.65 2.857h-15.104l-0.693 1.2c-0.105 0.182 0.026 0.41 0.237 0.41h20.962c0.21 0 0.342-0.228 0.237-0.41z"></path>
    </symbol>
  </defs>
</svg>
